<svg xmlns="http://www.w3.org/2000/svg" xmlns:xlink="http://www.w3.org/1999/xlink" viewBox="0 0 732.69 112"><defs><style>.cls-1{stroke:#000;stroke-width:2px;}.cls-1,.cls-3{stroke-miterlimit:10;}.cls-2{fill:url(#linear-gradient);}.cls-3{fill:none;stroke-width:4px;stroke:url(#linear-gradient-12);}</style><linearGradient id="linear-gradient" x1="35.22" y1="76.22" x2="648.57" y2="76.22" gradientUnits="userSpaceOnUse"><stop offset="0" stop-color="#c6def1"/><stop offset="0.24" stop-color="#c9e4de"/><stop offset="0.47" stop-color="#faedcb"/><stop offset="0.73" stop-color="#f7d9c4"/><stop offset="0.88" stop-color="#f2c6de"/></linearGradient><linearGradient id="linear-gradient-12" x1="10.95" y1="76.22" x2="741.64" y2="76.22" xlink:href="#linear-gradient"/></defs><title>logo</title><g id="Layer_2" data-name="Layer 2"><g id="Layer_1-2" data-name="Layer 1"><path class="cls-1" d="M19.45,129.92a7.34,7.34,0,0,1-5.55-2,7.79,7.79,0,0,1-2-5.63v-60a7.76,7.76,0,0,1,2-5.7,7.34,7.34,0,0,1,5.4-2,7.28,7.28,0,0,1,5.47,2,8,8,0,0,1,1.88,5.7v12.3L25,71.27a26.22,26.22,0,0,1,9.3-12.45,25.38,25.38,0,0,1,15.15-4.5q9.15,0,14.85,4.35T72.1,72H70a25.29,25.29,0,0,1,9.75-13,27.72,27.72,0,0,1,16-4.73q8.4,0,13.8,3.23a19.7,19.7,0,0,1,8.1,9.75q2.7,6.53,2.7,16.42v38.55a7,7,0,0,1-7.65,7.65,7.34,7.34,0,0,1-5.55-2,7.79,7.79,0,0,1-2-5.63V84.47c0-6.2-1.08-10.74-3.23-13.65s-5.67-4.35-10.57-4.35q-8.25,0-13,5.7T73.6,87.92v34.35a7.79,7.79,0,0,1-1.95,5.63,7.34,7.34,0,0,1-5.55,2,7,7,0,0,1-7.65-7.65V84.47c0-6.2-1.05-10.74-3.15-13.65s-5.6-4.35-10.5-4.35q-8.25,0-13,5.7T27.1,87.92v34.35Q27.1,129.92,19.45,129.92Z" transform="translate(-9.95 -20.22)"/><path class="cls-1" d="M165,130.22a30.61,30.61,0,0,1-13.73-3,24.07,24.07,0,0,1-9.52-8.1,20.09,20.09,0,0,1-3.45-11.55q0-8.1,4.12-12.82T156,88q9.53-2,25.73-2h7.05v9.3h-6.9a110.42,110.42,0,0,0-17.1,1q-6.3,1.05-8.93,3.53a8.91,8.91,0,0,0-2.62,6.82,11.84,11.84,0,0,0,3.9,9.23q3.9,3.52,10.8,3.52a18,18,0,0,0,9.75-2.62,19.08,19.08,0,0,0,6.67-7.13,21.13,21.13,0,0,0,2.48-10.35V82.07q0-8.55-3.6-12.3C180.85,67.28,176.9,66,171.4,66a44.17,44.17,0,0,0-10,1.2,47.58,47.58,0,0,0-10.72,4,6.55,6.55,0,0,1-4.35.75,4.68,4.68,0,0,1-2.85-2,6.59,6.59,0,0,1-1.13-3.45,7,7,0,0,1,.9-3.68,6.05,6.05,0,0,1,3.38-2.7,57.81,57.81,0,0,1,13-4.5,59.43,59.43,0,0,1,12.15-1.35q10.05,0,16.57,3.15a20.32,20.32,0,0,1,9.68,9.6q3.15,6.47,3.15,16.65v38.55a8.19,8.19,0,0,1-1.8,5.63,6.65,6.65,0,0,1-5.25,2,7,7,0,0,1-5.25-2,7.79,7.79,0,0,1-1.95-5.63v-9.75h1.35a22.38,22.38,0,0,1-4.43,9.53,21,21,0,0,1-8,6.07A27.07,27.07,0,0,1,165,130.22Z" transform="translate(-9.95 -20.22)"/><path class="cls-1" d="M229.75,129.92a7.55,7.55,0,0,1-5.7-2,7.79,7.79,0,0,1-2-5.63v-60a7.76,7.76,0,0,1,2-5.7,8.55,8.55,0,0,1,10.87,0,8,8,0,0,1,1.88,5.7V73.22h-1.5q2.4-9,8.85-13.65t16.5-5.4a5.54,5.54,0,0,1,4.27,1.35,6.61,6.61,0,0,1,1.73,4.65,6.38,6.38,0,0,1-1.35,5,7.34,7.34,0,0,1-5.1,2.17l-2.85.3q-9.75.9-14.85,6.15t-5.1,14.4v34.05a8,8,0,0,1-1.88,5.63Q233.65,129.93,229.75,129.92Z" transform="translate(-9.95 -20.22)"/><path class="cls-1" d="M285.54,39.32q-4.5,0-7-2.25a8.08,8.08,0,0,1-2.47-6.3,8,8,0,0,1,2.47-6.37,12.25,12.25,0,0,1,13.95,0A8,8,0,0,1,295,30.77a8.08,8.08,0,0,1-2.48,6.3Q290,39.32,285.54,39.32Zm0,90.45A7,7,0,0,1,280,127.6a8.73,8.73,0,0,1-2-6.08V63a8.47,8.47,0,0,1,2-6,7.21,7.21,0,0,1,5.54-2.1,7.5,7.5,0,0,1,5.63,2.1,8.31,8.31,0,0,1,2,6v58.5a8.82,8.82,0,0,1-1.94,6.08A7.29,7.29,0,0,1,285.54,129.77Z" transform="translate(-9.95 -20.22)"/><path class="cls-1" d="M337.89,130.22a30.56,30.56,0,0,1-13.72-3,24.1,24.1,0,0,1-9.53-8.1,20.09,20.09,0,0,1-3.45-11.55q0-8.1,4.13-12.82T329,88q9.52-2,25.72-2h7.05v9.3h-6.9a110.42,110.42,0,0,0-17.1,1q-6.3,1.05-8.92,3.53a8.92,8.92,0,0,0-2.63,6.82,11.84,11.84,0,0,0,3.9,9.23q3.9,3.52,10.8,3.52a18,18,0,0,0,9.75-2.62,19.1,19.1,0,0,0,6.68-7.13,21.12,21.12,0,0,0,2.47-10.35V82.07q0-8.55-3.6-12.3c-2.4-2.49-6.35-3.75-11.85-3.75a44.09,44.09,0,0,0-10,1.2,47.64,47.64,0,0,0-10.73,4,6.55,6.55,0,0,1-4.35.75,4.68,4.68,0,0,1-2.85-2,6.58,6.58,0,0,1-1.12-3.45,7,7,0,0,1,.9-3.68,6,6,0,0,1,3.37-2.7,57.81,57.81,0,0,1,13.05-4.5,59.43,59.43,0,0,1,12.15-1.35q10.05,0,16.58,3.15a20.3,20.3,0,0,1,9.67,9.6q3.15,6.47,3.15,16.65v38.55a8.19,8.19,0,0,1-1.8,5.63,6.65,6.65,0,0,1-5.25,2,7,7,0,0,1-5.25-2,7.79,7.79,0,0,1-1.95-5.63v-9.75h1.35a22.37,22.37,0,0,1-4.42,9.53,21,21,0,0,1-8,6.07A27.07,27.07,0,0,1,337.89,130.22Z" transform="translate(-9.95 -20.22)"/><path class="cls-1" d="M422.64,129.92a9.2,9.2,0,0,1-5.47-1.65,11.78,11.78,0,0,1-3.83-5.1l-25-58.2a9.56,9.56,0,0,1-.9-5.1,5.39,5.39,0,0,1,2.25-3.82,8.72,8.72,0,0,1,5.25-1.43,6.9,6.9,0,0,1,4.5,1.35,11.73,11.73,0,0,1,3,4.65L425,116.42h-4.2l23.1-55.8A11.26,11.26,0,0,1,447,56a7.73,7.73,0,0,1,4.87-1.35,6.15,6.15,0,0,1,4.28,1.43,6.22,6.22,0,0,1,1.95,3.75,8.83,8.83,0,0,1-.83,5l-25.35,58.35a10.63,10.63,0,0,1-3.75,5.1A9.56,9.56,0,0,1,422.64,129.92Z" transform="translate(-9.95 -20.22)"/><path class="cls-1" d="M479.79,39.32q-4.5,0-7-2.25a8.08,8.08,0,0,1-2.48-6.3,8,8,0,0,1,2.48-6.37,12.25,12.25,0,0,1,13.95,0,8,8,0,0,1,2.47,6.37,8.08,8.08,0,0,1-2.47,6.3Q484.3,39.32,479.79,39.32Zm0,90.45a7.06,7.06,0,0,1-5.55-2.17,8.78,8.78,0,0,1-1.95-6.08V63a8.51,8.51,0,0,1,1.95-6,7.24,7.24,0,0,1,5.55-2.1,7.5,7.5,0,0,1,5.63,2.1,8.31,8.31,0,0,1,2,6v58.5a8.78,8.78,0,0,1-1.95,6.08A7.26,7.26,0,0,1,479.79,129.77Z" transform="translate(-9.95 -20.22)"/><path class="cls-1" d="M543.09,130.22q-12,0-20.62-4.57a32.23,32.23,0,0,1-13.35-13.05q-4.72-8.47-4.73-20.18a41.14,41.14,0,0,1,4.65-20,34.21,34.21,0,0,1,12.75-13.35,38.25,38.25,0,0,1,32.1-2.32A28.16,28.16,0,0,1,564.17,64a31,31,0,0,1,6.45,11.47,49.27,49.27,0,0,1,2.17,15.15,4.74,4.74,0,0,1-1.5,3.83,6.81,6.81,0,0,1-4.5,1.27h-50.4v-9.3h46.2L560,88.52a33.35,33.35,0,0,0-2.17-12.75,17,17,0,0,0-6.45-8A19,19,0,0,0,540.84,65a19.84,19.84,0,0,0-19.35,12.45,34,34,0,0,0-2.55,13.65V92q0,13.2,6.23,19.88t18.07,6.67a40.56,40.56,0,0,0,9.53-1.2,31.26,31.26,0,0,0,9.52-4,8.21,8.21,0,0,1,4.58-1.35,5.07,5.07,0,0,1,4.87,4.35,6.07,6.07,0,0,1-.6,3.68,8.61,8.61,0,0,1-3.15,3.37,37.33,37.33,0,0,1-11.85,5.18A52.63,52.63,0,0,1,543.09,130.22Z" transform="translate(-9.95 -20.22)"/><path class="cls-1" d="M596.79,39.32q-4.5,0-7-2.25a8.08,8.08,0,0,1-2.48-6.3,8,8,0,0,1,2.48-6.37,12.25,12.25,0,0,1,13.95,0,8,8,0,0,1,2.47,6.37,8.08,8.08,0,0,1-2.47,6.3Q601.3,39.32,596.79,39.32Zm0,90.45a7.06,7.06,0,0,1-5.55-2.17,8.78,8.78,0,0,1-2-6.08V63a8.51,8.51,0,0,1,2-6,7.24,7.24,0,0,1,5.55-2.1,7.5,7.5,0,0,1,5.63,2.1,8.31,8.31,0,0,1,2,6v58.5a8.78,8.78,0,0,1-2,6.08A7.26,7.26,0,0,1,596.79,129.77Z" transform="translate(-9.95 -20.22)"/><path class="cls-1" d="M633.39,129.92a7.55,7.55,0,0,1-5.7-2,7.79,7.79,0,0,1-2-5.63v-60a7.76,7.76,0,0,1,2-5.7,8.55,8.55,0,0,1,10.87,0,8,8,0,0,1,1.88,5.7V73.22h-1.5q2.4-9,8.85-13.65t16.5-5.4a5.54,5.54,0,0,1,4.27,1.35,6.57,6.57,0,0,1,1.73,4.65,6.38,6.38,0,0,1-1.35,5,7.34,7.34,0,0,1-5.1,2.17l-2.85.3q-9.75.9-14.85,6.15T641,88.22v34.05a8,8,0,0,1-1.87,5.63C637.91,129.25,636,129.92,633.39,129.92Z" transform="translate(-9.95 -20.22)"/><path class="cls-1" d="M704.34,130.22a30.61,30.61,0,0,1-13.73-3,24.07,24.07,0,0,1-9.52-8.1,20.09,20.09,0,0,1-3.45-11.55q0-8.1,4.12-12.82T695.41,88q9.52-2,25.73-2h7.05v9.3h-6.9a110.42,110.42,0,0,0-17.1,1q-6.3,1.05-8.93,3.53a8.91,8.91,0,0,0-2.62,6.82,11.84,11.84,0,0,0,3.9,9.23q3.9,3.52,10.8,3.52a18,18,0,0,0,9.75-2.62,19.08,19.08,0,0,0,6.67-7.13,21.13,21.13,0,0,0,2.48-10.35V82.07q0-8.55-3.6-12.3c-2.4-2.49-6.35-3.75-11.85-3.75a44.17,44.17,0,0,0-10,1.2,47.58,47.58,0,0,0-10.72,4,6.55,6.55,0,0,1-4.35.75,4.68,4.68,0,0,1-2.85-2,6.59,6.59,0,0,1-1.13-3.45,7,7,0,0,1,.9-3.68,6.05,6.05,0,0,1,3.38-2.7,57.81,57.81,0,0,1,13.05-4.5,59.43,59.43,0,0,1,12.15-1.35q10.05,0,16.57,3.15a20.32,20.32,0,0,1,9.68,9.6q3.15,6.47,3.15,16.65v38.55a8.19,8.19,0,0,1-1.8,5.63,6.65,6.65,0,0,1-5.25,2,7,7,0,0,1-5.25-2,7.79,7.79,0,0,1-2-5.63v-9.75h1.35a22.38,22.38,0,0,1-4.43,9.53,21,21,0,0,1-8,6.07A27.07,27.07,0,0,1,704.34,130.22Z" transform="translate(-9.95 -20.22)"/><path class="cls-2" d="M19.45,129.92a7.34,7.34,0,0,1-5.55-2,7.79,7.79,0,0,1-2-5.63v-60a7.76,7.76,0,0,1,2-5.7,7.34,7.34,0,0,1,5.4-2,7.28,7.28,0,0,1,5.47,2,8,8,0,0,1,1.88,5.7v12.3L25,71.27a26.22,26.22,0,0,1,9.3-12.45,25.38,25.38,0,0,1,15.15-4.5q9.15,0,14.85,4.35T72.1,72H70a25.29,25.29,0,0,1,9.75-13,27.72,27.72,0,0,1,16-4.73q8.4,0,13.8,3.23a19.7,19.7,0,0,1,8.1,9.75q2.7,6.53,2.7,16.42v38.55a7,7,0,0,1-7.65,7.65,7.34,7.34,0,0,1-5.55-2,7.79,7.79,0,0,1-2-5.63V84.47c0-6.2-1.08-10.74-3.23-13.65s-5.67-4.35-10.57-4.35q-8.25,0-13,5.7T73.6,87.92v34.35a7.79,7.79,0,0,1-1.95,5.63,7.34,7.34,0,0,1-5.55,2,7,7,0,0,1-7.65-7.65V84.47c0-6.2-1.05-10.74-3.15-13.65s-5.6-4.35-10.5-4.35q-8.25,0-13,5.7T27.1,87.92v34.35Q27.1,129.92,19.45,129.92Z" transform="translate(-9.95 -20.22)"/><path class="cls-2" d="M165,130.22a30.61,30.61,0,0,1-13.73-3,24.07,24.07,0,0,1-9.52-8.1,20.09,20.09,0,0,1-3.45-11.55q0-8.1,4.12-12.82T156,88q9.53-2,25.73-2h7.05v9.3h-6.9a110.42,110.42,0,0,0-17.1,1q-6.3,1.05-8.93,3.53a8.91,8.91,0,0,0-2.62,6.82,11.84,11.84,0,0,0,3.9,9.23q3.9,3.52,10.8,3.52a18,18,0,0,0,9.75-2.62,19.08,19.08,0,0,0,6.67-7.13,21.13,21.13,0,0,0,2.48-10.35V82.07q0-8.55-3.6-12.3C180.85,67.28,176.9,66,171.4,66a44.17,44.17,0,0,0-10,1.2,47.58,47.58,0,0,0-10.72,4,6.55,6.55,0,0,1-4.35.75,4.68,4.68,0,0,1-2.85-2,6.59,6.59,0,0,1-1.13-3.45,7,7,0,0,1,.9-3.68,6.05,6.05,0,0,1,3.38-2.7,57.81,57.81,0,0,1,13-4.5,59.43,59.43,0,0,1,12.15-1.35q10.05,0,16.57,3.15a20.32,20.32,0,0,1,9.68,9.6q3.15,6.47,3.15,16.65v38.55a8.19,8.19,0,0,1-1.8,5.63,6.65,6.65,0,0,1-5.25,2,7,7,0,0,1-5.25-2,7.79,7.79,0,0,1-1.95-5.63v-9.75h1.35a22.38,22.38,0,0,1-4.43,9.53,21,21,0,0,1-8,6.07A27.07,27.07,0,0,1,165,130.22Z" transform="translate(-9.95 -20.22)"/><path class="cls-2" d="M229.75,129.92a7.55,7.55,0,0,1-5.7-2,7.79,7.79,0,0,1-2-5.63v-60a7.76,7.76,0,0,1,2-5.7,8.55,8.55,0,0,1,10.87,0,8,8,0,0,1,1.88,5.7V73.22h-1.5q2.4-9,8.85-13.65t16.5-5.4a5.54,5.54,0,0,1,4.27,1.35,6.61,6.61,0,0,1,1.73,4.65,6.38,6.38,0,0,1-1.35,5,7.34,7.34,0,0,1-5.1,2.17l-2.85.3q-9.75.9-14.85,6.15t-5.1,14.4v34.05a8,8,0,0,1-1.88,5.63Q233.65,129.93,229.75,129.92Z" transform="translate(-9.95 -20.22)"/><path class="cls-2" d="M285.54,39.32q-4.5,0-7-2.25a8.08,8.08,0,0,1-2.47-6.3,8,8,0,0,1,2.47-6.37,12.25,12.25,0,0,1,13.95,0A8,8,0,0,1,295,30.77a8.08,8.08,0,0,1-2.48,6.3Q290,39.32,285.54,39.32Zm0,90.45A7,7,0,0,1,280,127.6a8.73,8.73,0,0,1-2-6.08V63a8.47,8.47,0,0,1,2-6,7.21,7.21,0,0,1,5.54-2.1,7.5,7.5,0,0,1,5.63,2.1,8.31,8.31,0,0,1,2,6v58.5a8.82,8.82,0,0,1-1.94,6.08A7.29,7.29,0,0,1,285.54,129.77Z" transform="translate(-9.95 -20.22)"/><path class="cls-2" d="M337.89,130.22a30.56,30.56,0,0,1-13.72-3,24.1,24.1,0,0,1-9.53-8.1,20.09,20.09,0,0,1-3.45-11.55q0-8.1,4.13-12.82T329,88q9.52-2,25.72-2h7.05v9.3h-6.9a110.42,110.42,0,0,0-17.1,1q-6.3,1.05-8.92,3.53a8.92,8.92,0,0,0-2.63,6.82,11.84,11.84,0,0,0,3.9,9.23q3.9,3.52,10.8,3.52a18,18,0,0,0,9.75-2.62,19.1,19.1,0,0,0,6.68-7.13,21.12,21.12,0,0,0,2.47-10.35V82.07q0-8.55-3.6-12.3c-2.4-2.49-6.35-3.75-11.85-3.75a44.09,44.09,0,0,0-10,1.2,47.64,47.64,0,0,0-10.73,4,6.55,6.55,0,0,1-4.35.75,4.68,4.68,0,0,1-2.85-2,6.58,6.58,0,0,1-1.12-3.45,7,7,0,0,1,.9-3.68,6,6,0,0,1,3.37-2.7,57.81,57.81,0,0,1,13.05-4.5,59.43,59.43,0,0,1,12.15-1.35q10.05,0,16.58,3.15a20.3,20.3,0,0,1,9.67,9.6q3.15,6.47,3.15,16.65v38.55a8.19,8.19,0,0,1-1.8,5.63,6.65,6.65,0,0,1-5.25,2,7,7,0,0,1-5.25-2,7.79,7.79,0,0,1-1.95-5.63v-9.75h1.35a22.37,22.37,0,0,1-4.42,9.53,21,21,0,0,1-8,6.07A27.07,27.07,0,0,1,337.89,130.22Z" transform="translate(-9.95 -20.22)"/><path class="cls-2" d="M422.64,129.92a9.2,9.2,0,0,1-5.47-1.65,11.78,11.78,0,0,1-3.83-5.1l-25-58.2a9.56,9.56,0,0,1-.9-5.1,5.39,5.39,0,0,1,2.25-3.82,8.72,8.72,0,0,1,5.25-1.43,6.9,6.9,0,0,1,4.5,1.35,11.73,11.73,0,0,1,3,4.65L425,116.42h-4.2l23.1-55.8A11.26,11.26,0,0,1,447,56a7.73,7.73,0,0,1,4.87-1.35,6.15,6.15,0,0,1,4.28,1.43,6.22,6.22,0,0,1,1.95,3.75,8.83,8.83,0,0,1-.83,5l-25.35,58.35a10.63,10.63,0,0,1-3.75,5.1A9.56,9.56,0,0,1,422.64,129.92Z" transform="translate(-9.95 -20.22)"/><path class="cls-2" d="M479.79,39.32q-4.5,0-7-2.25a8.08,8.08,0,0,1-2.48-6.3,8,8,0,0,1,2.48-6.37,12.25,12.25,0,0,1,13.95,0,8,8,0,0,1,2.47,6.37,8.08,8.08,0,0,1-2.47,6.3Q484.3,39.32,479.79,39.32Zm0,90.45a7.06,7.06,0,0,1-5.55-2.17,8.78,8.78,0,0,1-1.95-6.08V63a8.51,8.51,0,0,1,1.95-6,7.24,7.24,0,0,1,5.55-2.1,7.5,7.5,0,0,1,5.63,2.1,8.31,8.31,0,0,1,2,6v58.5a8.78,8.78,0,0,1-1.95,6.08A7.26,7.26,0,0,1,479.79,129.77Z" transform="translate(-9.95 -20.22)"/><path class="cls-2" d="M543.09,130.22q-12,0-20.62-4.57a32.23,32.23,0,0,1-13.35-13.05q-4.72-8.47-4.73-20.18a41.14,41.14,0,0,1,4.65-20,34.21,34.21,0,0,1,12.75-13.35,38.25,38.25,0,0,1,32.1-2.32A28.16,28.16,0,0,1,564.17,64a31,31,0,0,1,6.45,11.47,49.27,49.27,0,0,1,2.17,15.15,4.74,4.74,0,0,1-1.5,3.83,6.81,6.81,0,0,1-4.5,1.27h-50.4v-9.3h46.2L560,88.52a33.35,33.35,0,0,0-2.17-12.75,17,17,0,0,0-6.45-8A19,19,0,0,0,540.84,65a19.84,19.84,0,0,0-19.35,12.45,34,34,0,0,0-2.55,13.65V92q0,13.2,6.23,19.88t18.07,6.67a40.56,40.56,0,0,0,9.53-1.2,31.26,31.26,0,0,0,9.52-4,8.21,8.21,0,0,1,4.58-1.35,5.07,5.07,0,0,1,4.87,4.35,6.07,6.07,0,0,1-.6,3.68,8.61,8.61,0,0,1-3.15,3.37,37.33,37.33,0,0,1-11.85,5.18A52.63,52.63,0,0,1,543.09,130.22Z" transform="translate(-9.95 -20.22)"/><path class="cls-2" d="M596.79,39.32q-4.5,0-7-2.25a8.08,8.08,0,0,1-2.48-6.3,8,8,0,0,1,2.48-6.37,12.25,12.25,0,0,1,13.95,0,8,8,0,0,1,2.47,6.37,8.08,8.08,0,0,1-2.47,6.3Q601.3,39.32,596.79,39.32Zm0,90.45a7.06,7.06,0,0,1-5.55-2.17,8.78,8.78,0,0,1-2-6.08V63a8.51,8.51,0,0,1,2-6,7.24,7.24,0,0,1,5.55-2.1,7.5,7.5,0,0,1,5.63,2.1,8.31,8.31,0,0,1,2,6v58.5a8.78,8.78,0,0,1-2,6.08A7.26,7.26,0,0,1,596.79,129.77Z" transform="translate(-9.95 -20.22)"/><path class="cls-2" d="M633.39,129.92a7.55,7.55,0,0,1-5.7-2,7.79,7.79,0,0,1-2-5.63v-60a7.76,7.76,0,0,1,2-5.7,8.55,8.55,0,0,1,10.87,0,8,8,0,0,1,1.88,5.7V73.22h-1.5q2.4-9,8.85-13.65t16.5-5.4a5.54,5.54,0,0,1,4.27,1.35,6.57,6.57,0,0,1,1.73,4.65,6.38,6.38,0,0,1-1.35,5,7.34,7.34,0,0,1-5.1,2.17l-2.85.3q-9.75.9-14.85,6.15T641,88.22v34.05a8,8,0,0,1-1.87,5.63C637.91,129.25,636,129.92,633.39,129.92Z" transform="translate(-9.95 -20.22)"/><path class="cls-2" d="M704.34,130.22a30.61,30.61,0,0,1-13.73-3,24.07,24.07,0,0,1-9.52-8.1,20.09,20.09,0,0,1-3.45-11.55q0-8.1,4.12-12.82T695.41,88q9.52-2,25.73-2h7.05v9.3h-6.9a110.42,110.42,0,0,0-17.1,1q-6.3,1.05-8.93,3.53a8.91,8.91,0,0,0-2.62,6.82,11.84,11.84,0,0,0,3.9,9.23q3.9,3.52,10.8,3.52a18,18,0,0,0,9.75-2.62,19.08,19.08,0,0,0,6.67-7.13,21.13,21.13,0,0,0,2.48-10.35V82.07q0-8.55-3.6-12.3c-2.4-2.49-6.35-3.75-11.85-3.75a44.17,44.17,0,0,0-10,1.2,47.58,47.58,0,0,0-10.72,4,6.55,6.55,0,0,1-4.35.75,4.68,4.68,0,0,1-2.85-2,6.59,6.59,0,0,1-1.13-3.45,7,7,0,0,1,.9-3.68,6.05,6.05,0,0,1,3.38-2.7,57.81,57.81,0,0,1,13.05-4.5,59.43,59.43,0,0,1,12.15-1.35q10.05,0,16.57,3.15a20.32,20.32,0,0,1,9.68,9.6q3.15,6.47,3.15,16.65v38.55a8.19,8.19,0,0,1-1.8,5.63,6.65,6.65,0,0,1-5.25,2,7,7,0,0,1-5.25-2,7.79,7.79,0,0,1-2-5.63v-9.75h1.35a22.38,22.38,0,0,1-4.43,9.53,21,21,0,0,1-8,6.07A27.07,27.07,0,0,1,704.34,130.22Z" transform="translate(-9.95 -20.22)"/><path class="cls-3" d="M19.45,129.92a7.34,7.34,0,0,1-5.55-2,7.79,7.79,0,0,1-2-5.63v-60a7.76,7.76,0,0,1,2-5.7,7.34,7.34,0,0,1,5.4-2,7.28,7.28,0,0,1,5.47,2,8,8,0,0,1,1.88,5.7v12.3L25,71.27a26.22,26.22,0,0,1,9.3-12.45,25.38,25.38,0,0,1,15.15-4.5q9.15,0,14.85,4.35T72.1,72H70a25.29,25.29,0,0,1,9.75-13,27.72,27.72,0,0,1,16-4.73q8.4,0,13.8,3.23a19.7,19.7,0,0,1,8.1,9.75q2.7,6.53,2.7,16.42v38.55a7,7,0,0,1-7.65,7.65,7.34,7.34,0,0,1-5.55-2,7.79,7.79,0,0,1-2-5.63V84.47c0-6.2-1.08-10.74-3.23-13.65s-5.67-4.35-10.57-4.35q-8.25,0-13,5.7T73.6,87.92v34.35a7.79,7.79,0,0,1-1.95,5.63,7.34,7.34,0,0,1-5.55,2,7,7,0,0,1-7.65-7.65V84.47c0-6.2-1.05-10.74-3.15-13.65s-5.6-4.35-10.5-4.35q-8.25,0-13,5.7T27.1,87.92v34.35Q27.1,129.92,19.45,129.92Z" transform="translate(-9.95 -20.22)"/><path class="cls-3" d="M165,130.22a30.61,30.61,0,0,1-13.73-3,24.07,24.07,0,0,1-9.52-8.1,20.09,20.09,0,0,1-3.45-11.55q0-8.1,4.12-12.82T156,88q9.53-2,25.73-2h7.05v9.3h-6.9a110.42,110.42,0,0,0-17.1,1q-6.3,1.05-8.93,3.53a8.91,8.91,0,0,0-2.62,6.82,11.84,11.84,0,0,0,3.9,9.23q3.9,3.52,10.8,3.52a18,18,0,0,0,9.75-2.62,19.08,19.08,0,0,0,6.67-7.13,21.13,21.13,0,0,0,2.48-10.35V82.07q0-8.55-3.6-12.3C180.85,67.28,176.9,66,171.4,66a44.17,44.17,0,0,0-10,1.2,47.58,47.58,0,0,0-10.72,4,6.55,6.55,0,0,1-4.35.75,4.68,4.68,0,0,1-2.85-2,6.59,6.59,0,0,1-1.13-3.45,7,7,0,0,1,.9-3.68,6.05,6.05,0,0,1,3.38-2.7,57.81,57.81,0,0,1,13-4.5,59.43,59.43,0,0,1,12.15-1.35q10.05,0,16.57,3.15a20.32,20.32,0,0,1,9.68,9.6q3.15,6.47,3.15,16.65v38.55a8.19,8.19,0,0,1-1.8,5.63,6.65,6.65,0,0,1-5.25,2,7,7,0,0,1-5.25-2,7.79,7.79,0,0,1-1.95-5.63v-9.75h1.35a22.38,22.38,0,0,1-4.43,9.53,21,21,0,0,1-8,6.07A27.07,27.07,0,0,1,165,130.22Z" transform="translate(-9.95 -20.22)"/><path class="cls-3" d="M229.75,129.92a7.55,7.55,0,0,1-5.7-2,7.79,7.79,0,0,1-2-5.63v-60a7.76,7.76,0,0,1,2-5.7,8.55,8.55,0,0,1,10.87,0,8,8,0,0,1,1.88,5.7V73.22h-1.5q2.4-9,8.85-13.65t16.5-5.4a5.54,5.54,0,0,1,4.27,1.35,6.61,6.61,0,0,1,1.73,4.65,6.38,6.38,0,0,1-1.35,5,7.34,7.34,0,0,1-5.1,2.17l-2.85.3q-9.75.9-14.85,6.15t-5.1,14.4v34.05a8,8,0,0,1-1.88,5.63Q233.65,129.93,229.75,129.92Z" transform="translate(-9.95 -20.22)"/><path class="cls-3" d="M285.54,39.32q-4.5,0-7-2.25a8.08,8.08,0,0,1-2.47-6.3,8,8,0,0,1,2.47-6.37,12.25,12.25,0,0,1,13.95,0A8,8,0,0,1,295,30.77a8.08,8.08,0,0,1-2.48,6.3Q290,39.32,285.54,39.32Zm0,90.45A7,7,0,0,1,280,127.6a8.73,8.73,0,0,1-2-6.08V63a8.47,8.47,0,0,1,2-6,7.21,7.21,0,0,1,5.54-2.1,7.5,7.5,0,0,1,5.63,2.1,8.31,8.31,0,0,1,2,6v58.5a8.82,8.82,0,0,1-1.94,6.08A7.29,7.29,0,0,1,285.54,129.77Z" transform="translate(-9.95 -20.22)"/><path class="cls-3" d="M337.89,130.22a30.56,30.56,0,0,1-13.72-3,24.1,24.1,0,0,1-9.53-8.1,20.09,20.09,0,0,1-3.45-11.55q0-8.1,4.13-12.82T329,88q9.52-2,25.72-2h7.05v9.3h-6.9a110.42,110.42,0,0,0-17.1,1q-6.3,1.05-8.92,3.53a8.92,8.92,0,0,0-2.63,6.82,11.84,11.84,0,0,0,3.9,9.23q3.9,3.52,10.8,3.52a18,18,0,0,0,9.75-2.62,19.1,19.1,0,0,0,6.68-7.13,21.12,21.12,0,0,0,2.47-10.35V82.07q0-8.55-3.6-12.3c-2.4-2.49-6.35-3.75-11.85-3.75a44.09,44.09,0,0,0-10,1.2,47.64,47.64,0,0,0-10.73,4,6.55,6.55,0,0,1-4.35.75,4.68,4.68,0,0,1-2.85-2,6.58,6.58,0,0,1-1.12-3.45,7,7,0,0,1,.9-3.68,6,6,0,0,1,3.37-2.7,57.81,57.81,0,0,1,13.05-4.5,59.43,59.43,0,0,1,12.15-1.35q10.05,0,16.58,3.15a20.3,20.3,0,0,1,9.67,9.6q3.15,6.47,3.15,16.65v38.55a8.19,8.19,0,0,1-1.8,5.63,6.65,6.65,0,0,1-5.25,2,7,7,0,0,1-5.25-2,7.79,7.79,0,0,1-1.95-5.63v-9.75h1.35a22.37,22.37,0,0,1-4.42,9.53,21,21,0,0,1-8,6.07A27.07,27.07,0,0,1,337.89,130.22Z" transform="translate(-9.95 -20.22)"/><path class="cls-3" d="M422.64,129.92a9.2,9.2,0,0,1-5.47-1.65,11.78,11.78,0,0,1-3.83-5.1l-25-58.2a9.56,9.56,0,0,1-.9-5.1,5.39,5.39,0,0,1,2.25-3.82,8.72,8.72,0,0,1,5.25-1.43,6.9,6.9,0,0,1,4.5,1.35,11.73,11.73,0,0,1,3,4.65L425,116.42h-4.2l23.1-55.8A11.26,11.26,0,0,1,447,56a7.73,7.73,0,0,1,4.87-1.35,6.15,6.15,0,0,1,4.28,1.43,6.22,6.22,0,0,1,1.95,3.75,8.83,8.83,0,0,1-.83,5l-25.35,58.35a10.63,10.63,0,0,1-3.75,5.1A9.56,9.56,0,0,1,422.64,129.92Z" transform="translate(-9.95 -20.22)"/><path class="cls-3" d="M479.79,39.32q-4.5,0-7-2.25a8.08,8.08,0,0,1-2.48-6.3,8,8,0,0,1,2.48-6.37,12.25,12.25,0,0,1,13.95,0,8,8,0,0,1,2.47,6.37,8.08,8.08,0,0,1-2.47,6.3Q484.3,39.32,479.79,39.32Zm0,90.45a7.06,7.06,0,0,1-5.55-2.17,8.78,8.78,0,0,1-1.95-6.08V63a8.51,8.51,0,0,1,1.95-6,7.24,7.24,0,0,1,5.55-2.1,7.5,7.5,0,0,1,5.63,2.1,8.31,8.31,0,0,1,2,6v58.5a8.78,8.78,0,0,1-1.95,6.08A7.26,7.26,0,0,1,479.79,129.77Z" transform="translate(-9.95 -20.22)"/><path class="cls-3" d="M543.09,130.22q-12,0-20.62-4.57a32.23,32.23,0,0,1-13.35-13.05q-4.72-8.47-4.73-20.18a41.14,41.14,0,0,1,4.65-20,34.21,34.21,0,0,1,12.75-13.35,38.25,38.25,0,0,1,32.1-2.32A28.16,28.16,0,0,1,564.17,64a31,31,0,0,1,6.45,11.47,49.27,49.27,0,0,1,2.17,15.15,4.74,4.74,0,0,1-1.5,3.83,6.81,6.81,0,0,1-4.5,1.27h-50.4v-9.3h46.2L560,88.52a33.35,33.35,0,0,0-2.17-12.75,17,17,0,0,0-6.45-8A19,19,0,0,0,540.84,65a19.84,19.84,0,0,0-19.35,12.45,34,34,0,0,0-2.55,13.65V92q0,13.2,6.23,19.88t18.07,6.67a40.56,40.56,0,0,0,9.53-1.2,31.26,31.26,0,0,0,9.52-4,8.21,8.21,0,0,1,4.58-1.35,5.07,5.07,0,0,1,4.87,4.35,6.07,6.07,0,0,1-.6,3.68,8.61,8.61,0,0,1-3.15,3.37,37.33,37.33,0,0,1-11.85,5.18A52.63,52.63,0,0,1,543.09,130.22Z" transform="translate(-9.95 -20.22)"/><path class="cls-3" d="M596.79,39.32q-4.5,0-7-2.25a8.08,8.08,0,0,1-2.48-6.3,8,8,0,0,1,2.48-6.37,12.25,12.25,0,0,1,13.95,0,8,8,0,0,1,2.47,6.37,8.08,8.08,0,0,1-2.47,6.3Q601.3,39.32,596.79,39.32Zm0,90.45a7.06,7.06,0,0,1-5.55-2.17,8.78,8.78,0,0,1-2-6.08V63a8.51,8.51,0,0,1,2-6,7.24,7.24,0,0,1,5.55-2.1,7.5,7.5,0,0,1,5.63,2.1,8.31,8.31,0,0,1,2,6v58.5a8.78,8.78,0,0,1-2,6.08A7.26,7.26,0,0,1,596.79,129.77Z" transform="translate(-9.95 -20.22)"/><path class="cls-3" d="M633.39,129.92a7.55,7.55,0,0,1-5.7-2,7.79,7.79,0,0,1-2-5.63v-60a7.76,7.76,0,0,1,2-5.7,8.55,8.55,0,0,1,10.87,0,8,8,0,0,1,1.88,5.7V73.22h-1.5q2.4-9,8.85-13.65t16.5-5.4a5.54,5.54,0,0,1,4.27,1.35,6.57,6.57,0,0,1,1.73,4.65,6.38,6.38,0,0,1-1.35,5,7.34,7.34,0,0,1-5.1,2.17l-2.85.3q-9.75.9-14.85,6.15T641,88.22v34.05a8,8,0,0,1-1.87,5.63C637.91,129.25,636,129.92,633.39,129.92Z" transform="translate(-9.95 -20.22)"/><path class="cls-3" d="M704.34,130.22a30.61,30.61,0,0,1-13.73-3,24.07,24.07,0,0,1-9.52-8.1,20.09,20.09,0,0,1-3.45-11.55q0-8.1,4.12-12.82T695.41,88q9.52-2,25.73-2h7.05v9.3h-6.9a110.42,110.42,0,0,0-17.1,1q-6.3,1.05-8.93,3.53a8.91,8.91,0,0,0-2.62,6.82,11.84,11.84,0,0,0,3.9,9.23q3.9,3.52,10.8,3.52a18,18,0,0,0,9.75-2.62,19.08,19.08,0,0,0,6.67-7.13,21.13,21.13,0,0,0,2.48-10.35V82.07q0-8.55-3.6-12.3c-2.4-2.49-6.35-3.75-11.85-3.75a44.17,44.17,0,0,0-10,1.2,47.58,47.58,0,0,0-10.72,4,6.55,6.55,0,0,1-4.35.75,4.68,4.68,0,0,1-2.85-2,6.59,6.59,0,0,1-1.13-3.45,7,7,0,0,1,.9-3.68,6.05,6.05,0,0,1,3.38-2.7,57.81,57.81,0,0,1,13.05-4.5,59.43,59.43,0,0,1,12.15-1.35q10.05,0,16.57,3.15a20.32,20.32,0,0,1,9.68,9.6q3.15,6.47,3.15,16.65v38.55a8.19,8.19,0,0,1-1.8,5.63,6.65,6.65,0,0,1-5.25,2,7,7,0,0,1-5.25-2,7.79,7.79,0,0,1-2-5.63v-9.75h1.35a22.38,22.38,0,0,1-4.43,9.53,21,21,0,0,1-8,6.07A27.07,27.07,0,0,1,704.34,130.22Z" transform="translate(-9.95 -20.22)"/></g></g></svg>